<svg xmlns="http://www.w3.org/2000/svg" viewBox="0 0 800 420">
  <rect width="800" height="420" fill="#07141c"/>
  <g stroke="#1a4a66" stroke-width="2" fill="none">
    <path d="M40 70h80v50h60"/>
    <path d="M60 300h120v50"/>
    <path d="M700 80h-90v60h-50"/>
    <path d="M740 280h-140v70"/>
  </g>
  <g fill="#1898e0">
    <circle cx="120" cy="70" r="5"/><circle cx="180" cy="120" r="5"/>
    <circle cx="180" cy="350" r="5"/><circle cx="610" cy="80" r="5"/>
    <circle cx="560" cy="140" r="5"/><circle cx="600" cy="350" r="5"/>
  </g>
  <rect x="150" y="70" width="500" height="250" rx="12" fill="#0c2233" stroke="#7fd4ff" stroke-width="3"/>
  <rect x="174" y="94" width="452" height="180" fill="#041018"/>
  <path d="M200 140h180M200 172h120M200 204h200" stroke="#8fd4f8" stroke-width="8" stroke-linecap="round"/>
  <path d="M500 130l-36 16v36c0 24 16 38 36 46 20-8 36-22 36-46v-36z" fill="#0b3a58" stroke="#8fd4f8" stroke-width="3"/>
  <rect x="486" y="168" width="28" height="22" rx="3" fill="none" stroke="#8fd4f8" stroke-width="3"/>
  <path d="M494 168v-8a6 6 0 0 1 12 0v8" fill="none" stroke="#8fd4f8" stroke-width="3"/>
  <rect x="330" y="332" width="140" height="16" rx="3" fill="#164868"/>
</svg>
